700 0 1 0           
30 Autodesk Translation Framework 21 ASM 228.6.0.65535 OSX 24 Tue Feb 14 12:59:53 2023 
1 9.999999999999999547e-07 1.000000000000000036e-10 
body $1 -1 $-1 $2 $-1 $3 #
rgb_color-st-attrib $-1 -1 $4 $-1 $0 0.627450980392156854 0.627450980392156854 0.627450980392156854 #
lump $-1 -1 $-1 $-1 $5 $0 #
transform $-1 -1 1 0 0 0 1 0 0 0 1 0 0 0 1 no_rotate no_reflect no_shear #
ATTRIB_CUSTOM-attrib $-1 -1 $-1 $1 $0 @20 Timestamp_attrib_def 1 1676375955571731 #
shell $-1 -1 $-1 $-1 $-1 $6 $-1 $2 #
face $7 -1 $-1 $8 $9 $5 $-1 $10 forward single #
DXID-attrib $-1 -1 $-1 $-1 $6 @10 ASM ENTITY @1 0 #
face $11 -1 $-1 $12 $13 $5 $-1 $14 forward single #
loop $-1 -1 $-1 $15 $16 $6 #
torus-surface $-1 -1 $-1 0 -1 0 0 1 0 16.49999999999999645 1 0 0 1 forward_v I I I I #
DXID-attrib $-1 -1 $-1 $-1 $8 @10 ASM ENTITY @1 1 #
face $17 -1 $-1 $18 $19 $5 $-1 $20 forward single #
loop $-1 -1 $-1 $21 $22 $8 #
plane-surface $-1 -1 $-1 0 0 0 0 1 0 10 0 0 forward_v I I I I #
loop $-1 -1 $-1 $-1 $23 $6 #
coedge $-1 -1 $-1 $16 $16 $24 $25 forward $9 $-1 #
DXID-attrib $-1 -1 $-1 $-1 $12 @10 ASM ENTITY @1 2 #
face $26 -1 $-1 $27 $28 $5 $-1 $29 forward single #
loop $-1 -1 $-1 $30 $31 $12 #
cone-surface $-1 -1 $-1 0 0 0 0 -1 0 17.49999999999999645 0 0 1 I I 0 1 17.49999999999999645 forward I I I I #
loop $-1 -1 $-1 $-1 $32 $8 #
coedge $-1 -1 $-1 $33 $34 $35 $36 reversed $13 $-1 #
coedge $-1 -1 $-1 $23 $23 $32 $37 forward $15 $-1 #
coedge $-1 -1 $-1 $24 $24 $16 $25 reversed $30 $-1 #
edge $-1 -1 $-1 $38 -3.141592653589793116 $38 3.141592653589793116 $24 $39 forward @7 tangent #
DXID-attrib $-1 -1 $-1 $-1 $18 @10 ASM ENTITY @1 3 #
face $40 -1 $-1 $41 $42 $5 $-1 $43 forward single #
loop $-1 -1 $-1 $-1 $35 $18 #
cone-surface $-1 -1 $-1 4 -1.500000000000000222 13.00000000000000355 -1 0 0 0 1.060660171779820304 -1.060660171779822747 1 I I 0 1 1.500000000000000222 forward I I I I #
loop $-1 -1 $-1 $-1 $24 $12 #
coedge $-1 -1 $-1 $31 $31 $44 $45 reversed $19 $-1 #
coedge $-1 -1 $-1 $32 $32 $23 $37 reversed $21 $-1 #
coedge $-1 -1 $-1 $46 $22 $47 $48 reversed $13 $-1 #
coedge $-1 -1 $-1 $22 $46 $49 $50 reversed $13 $-1 #
coedge $-1 -1 $-1 $51 $52 $22 $36 forward $28 $-1 #
edge $-1 -1 $-1 $53 -1.350000000000000089 $54 0.5500000000000000444 $22 $55 forward @7 tangent #
edge $-1 -1 $-1 $56 -3.141592653589793116 $56 3.141592653589793116 $32 $57 forward @7 tangent #
vertex $-1 -1 $-1 $25 $58 #
ellipse-curve $-1 -1 $-1 0 -1 0 0 1 0 17.49999999999999645 0 0 1 I I #
DXID-attrib $-1 -1 $-1 $-1 $27 @10 ASM ENTITY @1 4 #
face $59 -1 $-1 $60 $61 $5 $-1 $62 forward single #
loop $-1 -1 $-1 $-1 $49 $27 #
cone-surface $-1 -1 $-1 9.5 -1.500000000000000222 -5.750000000000000888 0 0 1 -1.060660171779821859 1.060660171779820971 0 1 I I 0 1 1.500000000000000222 forward I I I I #
coedge $-1 -1 $-1 $44 $44 $31 $45 forward $63 $-1 #
edge $-1 -1 $-1 $64 -6.283185307179586232 $64 -1.224646799147353207e-16 $31 $65 forward @7 unknown #
coedge $-1 -1 $-1 $34 $33 $66 $67 reversed $13 $-1 #
coedge $-1 -1 $-1 $68 $69 $33 $48 forward $61 $-1 #
edge $-1 -1 $-1 $70 -1.875000000000000444 $53 0.7250000000000001998 $33 $71 forward @7 tangent #
coedge $-1 -1 $-1 $72 $73 $34 $50 forward $42 $-1 #
edge $-1 -1 $-1 $54 -1.875000000000000444 $74 0.7250000000000001998 $34 $75 forward @7 tangent #
coedge $-1 -1 $-1 $76 $35 $73 $77 forward $28 $-1 #
coedge $-1 -1 $-1 $35 $76 $68 $78 reversed $28 $-1 #
vertex $-1 -1 $-1 $36 $79 #
vertex $-1 -1 $-1 $36 $80 #
straight-curve $-1 -1 $-1 4 0 13.00000000000000355 10 0 0 F -2.315000999999999642 F 1.51500099999999982 #
vertex $-1 -1 $-1 $37 $81 #
ellipse-curve $-1 -1 $-1 0 0 0 -0 -1 -0 16.49999999999999645 0 0 1 I I #
point $-1 -1 $-1 -17.49999999999999645 -1 2.143131898507867854e-15 #
DXID-attrib $-1 -1 $-1 $-1 $41 @10 ASM ENTITY @1 5 #
face $82 -1 $-1 $83 $84 $5 $-1 $85 forward single #
loop $-1 -1 $-1 $-1 $86 $41 #
cone-surface $-1 -1 $-1 -9.5 -1.500000000000000222 5.750000000000000888 0 0 -1 1.060660171779821859 1.060660171779820971 0 1 I I 0 1 1.500000000000000222 forward I I I I #
loop $-1 -1 $-1 $87 $44 $88 #
vertex $-1 -1 $-1 $45 $89 #
ellipse-curve $-1 -1 $-1 0 -2 0 -0 -1 -0 17.49999999999999645 0 0 1 I I #
coedge $-1 -1 $-1 $90 $91 $46 $67 forward $84 $-1 #
edge $-1 -1 $-1 $74 -1.350000000000000089 $70 0.5500000000000000444 $46 $92 forward @7 tangent #
coedge $-1 -1 $-1 $86 $47 $52 $78 forward $61 $-1 #
coedge $-1 -1 $-1 $47 $86 $90 $93 forward $61 $-1 #
vertex $-1 -1 $-1 $48 $94 #
straight-curve $-1 -1 $-1 -9.5 0 5.750000000000000888 0 0 10 F -2.490000999999999909 F 1.340000999999999554 #
coedge $-1 -1 $-1 $95 $49 $91 $96 forward $42 $-1 #
coedge $-1 -1 $-1 $49 $95 $51 $77 reversed $42 $-1 #
vertex $-1 -1 $-1 $67 $97 #
straight-curve $-1 -1 $-1 9.5 0 -5.750000000000000888 0 0 -10 F -2.490000999999999909 F 1.340000999999999554 #
coedge $-1 -1 $-1 $52 $51 $98 $99 forward $28 $-1 #
edge $-1 -1 $-1 $54 1.570796326794896558 $100 3.141592653589793116 $51 $101 forward @7 unknown #
edge $-1 -1 $-1 $53 1.570796326794896558 $102 3.141592653589793116 $68 $103 forward @7 unknown #
point $-1 -1 $-1 -9.5 0 13.00000000000000355 #
point $-1 -1 $-1 9.5 0 13.00000000000000355 #
point $-1 -1 $-1 -16.49999999999999645 0 -2.020667218593132311e-15 #
DXID-attrib $-1 -1 $-1 $-1 $60 @10 ASM ENTITY @1 6 #
face $104 -1 $-1 $105 $106 $5 $-1 $107 reversed single #
loop $-1 -1 $-1 $-1 $66 $60 #
cone-surface $-1 -1 $-1 -4 -1.500000000000000222 -13.00000000000000355 1 0 0 0 1.060660171779820304 1.060660171779822747 1 I I 0 1 1.500000000000000222 forward I I I I #
coedge $-1 -1 $-1 $69 $68 $108 $109 forward $61 $-1 #
loop $-1 -1 $-1 $-1 $110 $88 #
face $111 -1 $-1 $112 $63 $5 $-1 $113 forward single #
point $-1 -1 $-1 17.49999999999999645 -2 -2.143131898507867459e-15 #
coedge $-1 -1 $-1 $114 $66 $69 $93 reversed $84 $-1 #
coedge $-1 -1 $-1 $66 $114 $72 $96 reversed $84 $-1 #
straight-curve $-1 -1 $-1 -4 0 -13.00000000000000355 -10 0 0 F -2.315000999999999642 F 1.51500099999999982 #
edge $-1 -1 $-1 $115 0 $70 1.570796326794896558 $69 $116 forward @7 unknown #
point $-1 -1 $-1 -9.5 0 -13.00000000000000355 #
coedge $-1 -1 $-1 $73 $72 $117 $118 forward $42 $-1 #
edge $-1 -1 $-1 $74 1.570796326794896558 $119 3.141592653589793116 $72 $120 forward @7 unknown #
point $-1 -1 $-1 9.5 0 -13.00000000000000355 #
coedge $-1 -1 $-1 $121 $122 $76 $99 reversed $123 $-1 #
edge $-1 -1 $-1 $100 -0.4000000000000000222 $102 1.200000000000000178 $98 $124 forward @7 tangent #
vertex $-1 -1 $-1 $77 $125 #
ellipse-curve $-1 -1 $-1 9.5 -1.500000000000000222 13.00000000000000355 -0.7071067811865477948 0 0.7071067811865472397 1.499999999999999112 0 1.500000000000000222 0.7071067811865477948 F 1.570796326794896558 F 3.141592653589793116 #
vertex $-1 -1 $-1 $99 $126 #
ellipse-curve $-1 -1 $-1 -9.5 -1.500000000000000222 13.00000000000000355 -0.7071067811865477948 0 -0.7071067811865472397 -1.500000000000000222 0 1.500000000000001332 0.7071067811865472397 F 1.570796326794896558 F 3.141592653589793116 #
DXID-attrib $-1 -1 $-1 $-1 $83 @10 ASM ENTITY @1 7 #
face $127 -1 $-1 $128 $123 $5 $-1 $129 reversed single #
loop $-1 -1 $-1 $-1 $108 $83 #
plane-surface $-1 -1 $-1 -8 0 11.50000000000000178 -1 -0 -0 0 0 -10 forward_v I I I I #
coedge $-1 -1 $-1 $130 $131 $86 $109 reversed $106 $-1 #
edge $-1 -1 $-1 $102 -0.5750000000000000666 $115 1.725000000000000089 $108 $132 forward @7 tangent #
coedge $-1 -1 $-1 $110 $110 $133 $134 forward $87 $-1 #
DXID-attrib $-1 -1 $-1 $-1 $88 @10 ASM ENTITY @2 19 #
face $135 -1 $-1 $136 $137 $5 $-1 $138 forward single #
torus-surface $-1 -1 $-1 0 -4.958039891549807621 0 0 1 0 18.00000000000000355 -3.000000000000000444 -1 0 0 forward_v F 1.738244406014588295 F 3.141592653589793116 I I #
coedge $-1 -1 $-1 $91 $90 $139 $140 forward $84 $-1 #
vertex $-1 -1 $-1 $109 $141 #
ellipse-curve $-1 -1 $-1 -9.5 -1.500000000000000222 -13.00000000000000355 -0.7071067811865477948 0 0.7071067811865472397 1.500000000000000222 0 1.500000000000001332 0.7071067811865472397 F 0 F 1.570796326794896558 #
coedge $-1 -1 $-1 $142 $143 $95 $118 reversed $144 $-1 #
edge $-1 -1 $-1 $119 -0.5750000000000000666 $100 1.725000000000000089 $117 $145 forward @7 tangent #
vertex $-1 -1 $-1 $96 $146 #
ellipse-curve $-1 -1 $-1 9.5 -1.500000000000000222 -13.00000000000000355 0.7071067811865477948 0 0.7071067811865472397 1.500000000000000222 0 -1.500000000000001332 0.7071067811865472397 F 1.570796326794896558 F 3.141592653589793116 #
coedge $-1 -1 $-1 $147 $98 $143 $148 forward $123 $-1 #
coedge $-1 -1 $-1 $98 $147 $130 $149 reversed $123 $-1 #
loop $-1 -1 $-1 $-1 $98 $105 #
straight-curve $-1 -1 $-1 4 -1.500000000000000222 11.50000000000000178 -10 0 0 F -1.51500099999999982 F 2.315000999999999642 #
point $-1 -1 $-1 8 -1.500000000000000222 11.50000000000000178 #
point $-1 -1 $-1 -8 -1.500000000000000222 11.50000000000000178 #
DXID-attrib $-1 -1 $-1 $-1 $105 @10 ASM ENTITY @1 8 #
face $150 -1 $-1 $151 $144 $5 $-1 $152 reversed single #
plane-surface $-1 -1 $-1 8 0 11.50000000000000178 0 0 1 -10 0 0 forward_v I I I I #
coedge $-1 -1 $-1 $153 $108 $122 $149 forward $106 $-1 #
coedge $-1 -1 $-1 $108 $153 $154 $155 reversed $106 $-1 #
straight-curve $-1 -1 $-1 -8 -1.500000000000000222 5.750000000000000888 0 0 -10 F -1.340000999999999554 F 2.490000999999999909 #
coedge $-1 -1 $-1 $133 $133 $110 $134 reversed $156 $-1 #
edge $-1 -1 $-1 $157 -3.141592653589793116 $157 3.141592653589793116 $133 $158 forward @7 tangent #
DXID-attrib $-1 -1 $-1 $-1 $112 @10 ASM ENTITY @2 20 #
face $159 -1 $-1 $160 $161 $5 $-1 $162 forward single #
loop $-1 -1 $-1 $156 $163 $112 #
cone-surface $-1 -1 $-1 0 0 0 0 -1 0 15.00000000000000178 0 0 1 I I 0 1 15.00000000000000178 forward I I I I #
coedge $-1 -1 $-1 $154 $164 $114 $140 reversed $165 $-1 #
edge $-1 -1 $-1 $115 -0.4000000000000000222 $119 1.200000000000000178 $139 $166 forward @7 tangent #
point $-1 -1 $-1 -8 -1.500000000000000222 -11.50000000000000178 #
coedge $-1 -1 $-1 $167 $117 $164 $168 forward $144 $-1 #
coedge $-1 -1 $-1 $117 $167 $121 $148 reversed $144 $-1 #
loop $-1 -1 $-1 $-1 $117 $128 #
straight-curve $-1 -1 $-1 8 -1.500000000000000222 -5.750000000000000888 0 0 10 F -1.340000999999999554 F 2.490000999999999909 #
point $-1 -1 $-1 8 -1.500000000000000222 -11.50000000000000178 #
coedge $-1 -1 $-1 $122 $121 $169 $170 forward $123 $-1 #
edge $-1 -1 $-1 $100 0.1500000000000000222 $171 1 $143 $172 forward @7 unknown #
edge $-1 -1 $-1 $102 0.1500000000000000222 $173 1 $122 $174 forward @7 unknown #
DXID-attrib $-1 -1 $-1 $-1 $128 @10 ASM ENTITY @1 9 #
face $175 -1 $-1 $176 $165 $5 $-1 $177 reversed single #
plane-surface $-1 -1 $-1 8 0 -11.50000000000000178 1 0 0 0 0 10 forward_v I I I I #
coedge $-1 -1 $-1 $131 $130 $178 $179 forward $106 $-1 #
coedge $-1 -1 $-1 $180 $139 $131 $155 forward $165 $-1 #
edge $-1 -1 $-1 $115 0.1500000000000000222 $181 1 $154 $182 forward @7 unknown #
loop $-1 -1 $-1 $-1 $133 $112 #
vertex $-1 -1 $-1 $134 $183 #
ellipse-curve $-1 -1 $-1 0 -4.958039891549807621 0 0 1 0 -15.00000000000000178 0 0 1 I I #
DXID-attrib $-1 -1 $-1 $-1 $136 @10 ASM ENTITY @2 21 #
face $184 -1 $-1 $-1 $185 $5 $-1 $186 forward single #
loop $-1 -1 $-1 $-1 $187 $136 #
plane-surface $-1 -1 $-1 -4.5 0 7.999999999999999112 -0 -0 -1 10 0 0 forward_v I I I I #
coedge $-1 -1 $-1 $163 $163 $188 $189 reversed $137 $-1 #
coedge $-1 -1 $-1 $139 $180 $142 $168 reversed $165 $-1 #
loop $-1 -1 $-1 $-1 $139 $151 #
straight-curve $-1 -1 $-1 -4 -1.500000000000000222 -11.50000000000000178 10 0 0 F -1.51500099999999982 F 2.315000999999999642 #
coedge $-1 -1 $-1 $143 $142 $190 $191 forward $144 $-1 #
edge $-1 -1 $-1 $119 0.1500000000000000222 $192 1 $164 $193 forward @7 unknown #
coedge $-1 -1 $-1 $190 $178 $147 $170 reversed $194 $-1 #
edge $-1 -1 $-1 $171 0 $173 1.600000000000000089 $147 $195 forward @7 unknown #
vertex $-1 -1 $-1 $148 $196 #
straight-curve $-1 -1 $-1 8 0 11.50000000000000178 0 -10 0 I I #
vertex $-1 -1 $-1 $149 $197 #
straight-curve $-1 -1 $-1 -8 0 11.50000000000000178 0 -10 0 I I #
DXID-attrib $-1 -1 $-1 $-1 $151 @10 ASM ENTITY @2 10 #
face $198 -1 $-1 $199 $200 $5 $-1 $201 reversed single #
plane-surface $-1 -1 $-1 -8 0 -11.50000000000000178 0 0 -1 10 0 0 forward_v I I I I #
coedge $-1 -1 $-1 $169 $202 $153 $179 reversed $194 $-1 #
edge $-1 -1 $-1 $173 0 $181 2.300000000000000266 $153 $203 forward @7 unknown #
coedge $-1 -1 $-1 $164 $154 $202 $204 forward $165 $-1 #
vertex $-1 -1 $-1 $179 $205 #
straight-curve $-1 -1 $-1 -8 0 -11.50000000000000178 0 -10 0 I I #
point $-1 -1 $-1 15.00000000000000178 -4.958039891549807621 -1.836970198721030378e-15 #
DXID-attrib $-1 -1 $-1 $-1 $160 @10 ASM ENTITY @2 22 #
loop $-1 -1 $-1 $-1 $206 $160 #
plane-surface $-1 -1 $-1 -4.5 0 -7.999999999999999112 1 0 0 0 0 10 forward_v I I I I #
coedge $-1 -1 $-1 $207 $208 $209 $210 forward $161 $-1 #
coedge $-1 -1 $-1 $188 $188 $163 $189 forward $211 $-1 #
edge $-1 -1 $-1 $212 -3.141592653589793116 $212 3.141592653589793116 $163 $213 forward @7 unknown #
coedge $-1 -1 $-1 $202 $169 $167 $191 reversed $194 $-1 #
edge $-1 -1 $-1 $192 0 $171 2.300000000000000266 $167 $214 forward @7 unknown #
vertex $-1 -1 $-1 $168 $215 #
straight-curve $-1 -1 $-1 8 0 -11.50000000000000178 0 -10 0 I I #
loop $-1 -1 $-1 $-1 $202 $176 #
straight-curve $-1 -1 $-1 8 -10 11.50000000000000178 -10 0 0 I I #
point $-1 -1 $-1 8 -10 11.50000000000000355 #
point $-1 -1 $-1 -8 -10 11.50000000000000355 #
DXID-attrib $-1 -1 $-1 $-1 $176 @10 ASM ENTITY @2 11 #
face $216 -1 $-1 $217 $218 $5 $-1 $219 forward single #
loop $-1 -1 $-1 $194 $220 $176 #
plane-surface $-1 -1 $-1 0 -10 0 0 -1 0 0 0 -10 forward_v I I I I #
coedge $-1 -1 $-1 $178 $190 $180 $204 reversed $194 $-1 #
straight-curve $-1 -1 $-1 -8 -10 11.50000000000000178 0 0 -10 I I #
edge $-1 -1 $-1 $181 0 $192 1.600000000000000089 $180 $221 forward @7 unknown #
point $-1 -1 $-1 -8 -10 -11.50000000000000178 #
coedge $-1 -1 $-1 $222 $223 $224 $225 forward $185 $-1 #
coedge $-1 -1 $-1 $226 $187 $227 $228 forward $161 $-1 #
coedge $-1 -1 $-1 $187 $226 $222 $229 reversed $161 $-1 #
coedge $-1 -1 $-1 $224 $230 $187 $210 reversed $200 $-1 #
edge $-1 -1 $-1 $231 -0.2249999999999999778 $232 0.6749999999999999334 $187 $233 forward @7 unknown #
loop $-1 -1 $-1 $234 $188 $235 #
vertex $-1 -1 $-1 $189 $236 #
ellipse-curve $-1 -1 $-1 0 -20 0 -0 -1 -0 15.00000000000000178 0 0 1 I I #
straight-curve $-1 -1 $-1 8 -10 -11.50000000000000178 0 0 10 I I #
point $-1 -1 $-1 8 -10 -11.50000000000000178 #
DXID-attrib $-1 -1 $-1 $-1 $199 @10 ASM ENTITY @2 12 #
face $237 -1 $-1 $238 $239 $5 $-1 $240 forward single #
loop $-1 -1 $-1 $-1 $241 $199 #
plane-surface $-1 -1 $-1 4.5 0 7.999999999999999112 -1 0 0 -0 -0 -10 forward_v I I I I #
coedge $-1 -1 $-1 $230 $224 $242 $243 reversed $200 $-1 #
straight-curve $-1 -1 $-1 -8 -10 -11.50000000000000178 10 0 0 I I #
coedge $-1 -1 $-1 $244 $206 $208 $229 forward $185 $-1 #
coedge $-1 -1 $-1 $206 $244 $245 $246 reversed $185 $-1 #
coedge $-1 -1 $-1 $220 $209 $206 $225 reversed $200 $-1 #
edge $-1 -1 $-1 $247 -0.3999999999999999667 $231 1.199999999999999956 $206 $248 forward @7 unknown #
coedge $-1 -1 $-1 $208 $207 $249 $250 reversed $161 $-1 #
coedge $-1 -1 $-1 $241 $251 $207 $228 reversed $218 $-1 #
edge $-1 -1 $-1 $232 1 $252 1.699999999999999956 $207 $253 forward @7 unknown #
edge $-1 -1 $-1 $231 1 $254 1.699999999999999956 $222 $255 forward @7 unknown #
coedge $-1 -1 $-1 $209 $220 $241 $256 reversed $200 $-1 #
vertex $-1 -1 $-1 $210 $257 #
vertex $-1 -1 $-1 $256 $258 #
straight-curve $-1 -1 $-1 -2.25 -10 7.999999999999999112 10 0 0 I I #
loop $-1 -1 $-1 $-1 $259 $235 #
face $260 -1 $-1 $88 $211 $5 $-1 $261 reversed single #
point $-1 -1 $-1 -15.00000000000000178 -20 2.220446049250313081e-15 #
DXID-attrib $-1 -1 $-1 $-1 $217 @10 ASM ENTITY @2 13 #
face $262 -1 $-1 $263 $264 $5 $-1 $265 forward single #
loop $-1 -1 $-1 $-1 $242 $217 #
plane-surface $-1 -1 $-1 4.5 0 -7.999999999999999112 0 0 1 -10 -0 -0 forward_v I I I I #
coedge $-1 -1 $-1 $266 $227 $230 $256 forward $218 $-1 #
coedge $-1 -1 $-1 $245 $267 $220 $243 forward $239 $-1 #
edge $-1 -1 $-1 $268 -0.2249999999999999778 $247 0.6749999999999999334 $242 $269 forward @7 unknown #
coedge $-1 -1 $-1 $223 $222 $270 $271 reversed $185 $-1 #
coedge $-1 -1 $-1 $272 $242 $223 $246 forward $239 $-1 #
edge $-1 -1 $-1 $247 1 $273 1.699999999999999956 $245 $274 forward @7 unknown #
vertex $-1 -1 $-1 $243 $275 #
straight-curve $-1 -1 $-1 -4.5 -10 -3.999999999999999556 0 0 10 I I #
coedge $-1 -1 $-1 $276 $277 $226 $250 forward $278 $-1 #
edge $-1 -1 $-1 $254 -0.2249999999999999778 $252 0.6749999999999999334 $226 $279 forward @7 unknown #
coedge $-1 -1 $-1 $227 $266 $280 $281 reversed $218 $-1 #
vertex $-1 -1 $-1 $281 $282 #
straight-curve $-1 -1 $-1 4.5 0 7.999999999999999112 0 -10 0 I I #
vertex $-1 -1 $-1 $283 $284 #
straight-curve $-1 -1 $-1 -4.5 0 7.999999999999999112 0 -10 0 I I #
edge $-1 -1 $-1 $232 -0.3999999999999999667 $268 1.199999999999999956 $241 $285 forward @7 unknown #
point $-1 -1 $-1 -4.5 -10 7.999999999999999112 #
point $-1 -1 $-1 4.5 -10 7.999999999999999112 #
coedge $-1 -1 $-1 $286 $287 $288 $289 reversed $234 $-1 #
DXID-attrib $-1 -1 $-1 $-1 $235 @10 ASM ENTITY @2 18 #
plane-surface $-1 -1 $-1 0 -20 0 0 1 0 10 0 0 forward_v I I I I #
DXID-attrib $-1 -1 $-1 $-1 $238 @10 ASM ENTITY @2 14 #
face $290 -1 $-1 $291 $278 $5 $-1 $292 forward single #
loop $-1 -1 $-1 $-1 $288 $238 #
plane-surface $-1 -1 $-1 6 -18.5 3.999999999999999556 -0.7071067811865475727 -0.7071067811865475727 -0 0 0 10 forward_v I I I I #
coedge $-1 -1 $-1 $251 $241 $267 $293 forward $218 $-1 #
coedge $-1 -1 $-1 $242 $272 $266 $293 reversed $239 $-1 #
vertex $-1 -1 $-1 $243 $294 #
straight-curve $-1 -1 $-1 2.25 -10 -7.999999999999999112 -10 0 0 I I #
coedge $-1 -1 $-1 $295 $296 $244 $271 forward $297 $-1 #
edge $-1 -1 $-1 $273 -0.3999999999999999667 $254 1.199999999999999956 $244 $298 forward @7 unknown #
coedge $-1 -1 $-1 $267 $245 $299 $300 reversed $239 $-1 #
vertex $-1 -1 $-1 $246 $301 #
straight-curve $-1 -1 $-1 -4.5 0 -7.999999999999999112 0 -10 0 I I #
point $-1 -1 $-1 -4.5 -10 -7.999999999999999112 #
coedge $-1 -1 $-1 $302 $249 $303 $304 reversed $278 $-1 #
coedge $-1 -1 $-1 $249 $302 $295 $283 forward $278 $-1 #
loop $-1 -1 $-1 $-1 $302 $263 #
straight-curve $-1 -1 $-1 -2.25 -17 7.999999999999999112 10 0 0 F -1.605001000000000566 F 2.0550010000000003 #
coedge $-1 -1 $-1 $305 $303 $251 $281 forward $264 $-1 #
edge $-1 -1 $-1 $252 -0.3999999999999999667 $306 1.199999999999999956 $251 $307 forward @7 unknown #
point $-1 -1 $-1 4.5 -17 7.999999999999999112 #
edge $-1 -1 $-1 $308 0 $254 0.5196152422706632468 $277 $309 forward @7 unknown #
point $-1 -1 $-1 -4.5 -17 7.999999999999999112 #
straight-curve $-1 -1 $-1 4.5 -10 3.999999999999999556 -0 -0 -10 I I #
coedge $-1 -1 $-1 $310 $259 $311 $312 reversed $234 $-1 #
coedge $-1 -1 $-1 $259 $310 $302 $313 reversed $234 $-1 #
coedge $-1 -1 $-1 $303 $305 $259 $289 forward $264 $-1 #
edge $-1 -1 $-1 $314 -1.5 $315 0.7000000000000001776 $259 $316 forward @7 unknown #
DXID-attrib $-1 -1 $-1 $-1 $263 @10 ASM ENTITY @2 15 #
face $317 -1 $-1 $318 $297 $5 $-1 $319 forward single #
plane-surface $-1 -1 $-1 -2.25 -18.5 9.5 0 -0.7071067811865476838 -0.7071067811865474617 -10 0 0 forward_v I I I I #
edge $-1 -1 $-1 $268 1 $306 1.699999999999999956 $267 $320 forward @7 unknown #
point $-1 -1 $-1 4.5 -10 -7.999999999999999112 #
coedge $-1 -1 $-1 $321 $270 $277 $283 reversed $297 $-1 #
coedge $-1 -1 $-1 $270 $321 $322 $323 forward $297 $-1 #
loop $-1 -1 $-1 $-1 $321 $291 #
straight-curve $-1 -1 $-1 -4.5 -17 -3.999999999999999556 0 0 10 F -1.4300010000000003 F 2.230001000000000122 #
coedge $-1 -1 $-1 $322 $324 $272 $300 forward $325 $-1 #
edge $-1 -1 $-1 $306 -0.2249999999999999778 $273 0.6749999999999999334 $272 $326 forward @7 unknown #
point $-1 -1 $-1 -4.5 -17 -7.999999999999999112 #
coedge $-1 -1 $-1 $277 $276 $287 $313 forward $278 $-1 #
coedge $-1 -1 $-1 $280 $288 $276 $304 forward $264 $-1 #
edge $-1 -1 $-1 $315 0 $252 0.5196152422706632468 $303 $327 forward @7 unknown #
coedge $-1 -1 $-1 $288 $280 $324 $328 reversed $264 $-1 #
vertex $-1 -1 $-1 $293 $329 #
straight-curve $-1 -1 $-1 4.5 -17 3.999999999999999556 0 0 -10 F -1.4300010000000003 F 2.230001000000000122 #
vertex $-1 -1 $-1 $313 $330 #
straight-curve $-1 -1 $-1 -7.5 -20 11 5.773502691896256422 5.773502691896256422 -5.773502691896258199 F 0 F 0.5196152422706632468 #
coedge $-1 -1 $-1 $287 $286 $321 $331 reversed $234 $-1 #
coedge $-1 -1 $-1 $324 $322 $286 $312 forward $325 $-1 #
edge $-1 -1 $-1 $332 -0.9749999999999999778 $314 0.5250000000000000222 $286 $333 forward @7 unknown #
edge $-1 -1 $-1 $315 -0.9749999999999999778 $308 0.5250000000000000222 $287 $334 forward @7 unknown #
vertex $-1 -1 $-1 $289 $335 #
vertex $-1 -1 $-1 $289 $336 #
straight-curve $-1 -1 $-1 7.5 -20 3.999999999999999556 0 0 10 F -2.230001000000000122 F 1.4300010000000003 #
DXID-attrib $-1 -1 $-1 $-1 $291 @10 ASM ENTITY @2 16 #
face $337 -1 $-1 $235 $325 $5 $-1 $338 forward single #
plane-surface $-1 -1 $-1 -6 -18.5 -3.999999999999999556 0.7071067811865475727 -0.7071067811865475727 0 0 0 -10 forward_v I I I I #
straight-curve $-1 -1 $-1 4.5 0 -7.999999999999999112 0 -10 0 I I #
coedge $-1 -1 $-1 $296 $295 $310 $331 forward $297 $-1 #
coedge $-1 -1 $-1 $311 $299 $296 $323 reversed $325 $-1 #
edge $-1 -1 $-1 $332 0 $273 0.5196152422706632468 $296 $339 forward @7 unknown #
coedge $-1 -1 $-1 $299 $311 $305 $328 forward $325 $-1 #
loop $-1 -1 $-1 $-1 $299 $318 #
straight-curve $-1 -1 $-1 2.25 -17 -7.999999999999999112 -10 0 0 F -1.605001000000000566 F 2.0550010000000003 #
straight-curve $-1 -1 $-1 7.5 -20 11 -5.773502691896256422 5.773502691896256422 -5.773502691896258199 F 0 F 0.5196152422706632468 #
edge $-1 -1 $-1 $314 0 $306 0.5196152422706632468 $324 $340 forward @7 unknown #
point $-1 -1 $-1 4.5 -17 -7.999999999999999112 #
point $-1 -1 $-1 -7.5 -20 11 #
edge $-1 -1 $-1 $308 -1.5 $332 0.7000000000000001776 $310 $341 forward @7 unknown #
vertex $-1 -1 $-1 $331 $342 #
straight-curve $-1 -1 $-1 2.25 -20 -11 10 0 0 F -2.0550010000000003 F 1.605001000000000566 #
straight-curve $-1 -1 $-1 -2.25 -20 11 -10 -0 -0 F -2.0550010000000003 F 1.605001000000000566 #
point $-1 -1 $-1 7.5 -20 -11 #
point $-1 -1 $-1 7.5 -20 11 #
DXID-attrib $-1 -1 $-1 $-1 $318 @10 ASM ENTITY @2 17 #
plane-surface $-1 -1 $-1 2.25 -18.5 -9.5 0 -0.7071067811865476838 0.7071067811865474617 10 0 0 forward_v I I I I #
straight-curve $-1 -1 $-1 -7.5 -20 -11 5.773502691896256422 5.773502691896256422 5.773502691896258199 F 0 F 0.5196152422706632468 #
straight-curve $-1 -1 $-1 7.5 -20 -11 -5.773502691896256422 5.773502691896256422 5.773502691896258199 F 0 F 0.5196152422706632468 #
straight-curve $-1 -1 $-1 -7.5 -20 -3.999999999999999556 -0 -0 -10 F -2.230001000000000122 F 1.4300010000000003 #
point $-1 -1 $-1 -7.5 -20 -11 #
End-of-ACIS-data 